<svg width="133" height="50" viewBox="0 0 133 50" fill="none" xmlns="http://www.w3.org/2000/svg"><path d="M10.617 0v5.066s-4.236-.8-4.236 4.267V38.93c0 1.953-.552 6.13 4.502 6.13v4.8S.29 51.549.29 43.194c-.264-5.6 0-33.861-.264-33.062C.025 10.132-1.035 0 10.617 0zM97.46 49.998v-5.065s4.235.8 4.235-4.266V11.07c0-1.953.554-6.132-4.502-6.132V.14s10.596-1.69 10.596 6.666c.263 5.599 0 33.86.263 33.061 0 0 1.06 10.131-10.592 10.131zm18.847-26.304c3.752-3.86 6.198-6.547 7.333-8.06 1.746-2.29 2.616-4.317 2.616-6.082 0-1.048-.335-2.026-1.005-2.936-.673-.909-1.715-1.366-3.126-1.366-1.237 0-2.282.41-3.131 1.227-.46.449-.868 1.046-1.223 1.798h-.964c.778-2.32 1.858-4.04 3.235-5.158 1.379-1.116 2.927-1.676 4.65-1.676 1.627 0 3.109.536 4.441 1.611 1.331 1.075 1.995 2.65 1.995 4.734 0 1.089-.311 2.207-.937 3.351-.625 1.144-1.679 2.388-3.16 3.728l-5.371 4.873v.277h5.01c1.742 0 2.883-.137 3.418-.41.532-.271 1.069-1.002 1.609-2.189h.844l-1.585 7.046h-14.649v-.768zM32.168 43.115c.308.475 1.044.71 2.204.71 3.156 0 5.85-1.086 8.092-3.262 2.24-2.173 3.663-6.348 4.27-12.527.362-3.67.126-6.828-.707-9.467-1.35-4.248-4.123-6.372-8.316-6.372-1.387 0-2.315.288-2.787.863-.315.372-.523 1.091-.627 2.157l-2.513 25.587c-.054 1.067.075 1.837.384 2.311zM18.395 44.26c1.343-.086 2.322-.27 2.941-.562 1.09-.52 1.705-1.476 1.84-2.867l2.52-25.638c.129-1.337-.273-2.267-1.21-2.79-.54-.307-1.509-.518-2.9-.635l.13-1.322h16.27c6.568 0 11.408 1.71 14.521 5.128 2.829 3.114 3.988 7.293 3.474 12.54-.46 4.705-2.43 8.69-5.905 11.956-3.913 3.673-8.91 5.509-14.995 5.509H18.267l.128-1.32zm42.439-33.815H92.88l-.976 10.485H90.37c-.133-3.75-1.322-6.288-3.566-7.614-1.264-.73-3.216-1.127-5.86-1.195l-2.69 27.386c-.187 1.913.03 3.183.652 3.81.625.626 2.019.94 4.185.94l-.13 1.32H63.986l.133-1.32c2.077 0 3.492-.317 4.238-.953.747-.636 1.213-1.9 1.4-3.797l2.69-27.386c-2.61.068-4.639.466-6.098 1.195-2.68 1.358-4.367 3.896-5.062 7.614h-1.534l1.081-10.485z" fill="#fff"/></svg>