<svg xmlns="http://www.w3.org/2000/svg" width="143.479" height="86.167" viewBox="0 0 143.479 86.167">
  <g id="Group_1" data-name="Group 1" transform="translate(-199.235 -166.376)">
    <path id="Path_1" data-name="Path 1" d="M347.165,359.655a6.353,6.353,0,0,1-.035.725,2.277,2.277,0,0,1-.108.488.63.63,0,0,1-.18.28.386.386,0,0,1-.251.086H338.08a1.168,1.168,0,0,1-.8-.28,1.143,1.143,0,0,1-.323-.911V343.177a.4.4,0,0,1,.093-.258.661.661,0,0,1,.309-.188,2.984,2.984,0,0,1,.581-.114,9.5,9.5,0,0,1,1.83,0,2.971,2.971,0,0,1,.574.114.662.662,0,0,1,.309.188.4.4,0,0,1,.093.258v14.941h5.842a.413.413,0,0,1,.251.08.587.587,0,0,1,.18.258,2.046,2.046,0,0,1,.108.474,6.374,6.374,0,0,1,.035.725" transform="translate(-89.053 -113.929)" fill="#402867"/>
    <path id="Path_2" data-name="Path 2" d="M380.905,362.3a1.4,1.4,0,0,1-.293.976,1.053,1.053,0,0,1-.811.316h-7.794a5.325,5.325,0,0,0,.194,1.485,2.832,2.832,0,0,0,.616,1.134,2.692,2.692,0,0,0,1.09.71,4.681,4.681,0,0,0,1.6.245,8.982,8.982,0,0,0,1.665-.137,11.378,11.378,0,0,0,1.241-.3q.524-.164.868-.3a1.634,1.634,0,0,1,.56-.137.427.427,0,0,1,.216.051.373.373,0,0,1,.143.18,1.229,1.229,0,0,1,.078.366c.015.157.022.356.022.6,0,.21-.006.389-.015.538a3.206,3.206,0,0,1-.043.381.907.907,0,0,1-.086.266,1.023,1.023,0,0,1-.151.207,1.735,1.735,0,0,1-.509.272,8.065,8.065,0,0,1-1.062.338,14.487,14.487,0,0,1-1.479.287,12.351,12.351,0,0,1-1.78.123,9.457,9.457,0,0,1-2.992-.431,5.329,5.329,0,0,1-2.146-1.306,5.432,5.432,0,0,1-1.285-2.211,10.374,10.374,0,0,1-.423-3.129,9.927,9.927,0,0,1,.445-3.078,6.44,6.44,0,0,1,1.291-2.325,5.567,5.567,0,0,1,2.06-1.457,7.088,7.088,0,0,1,2.734-.5,7.169,7.169,0,0,1,2.749.474,4.972,4.972,0,0,1,1.874,1.314,5.308,5.308,0,0,1,1.076,1.988,8.7,8.7,0,0,1,.344,2.5Zm-3.5-1.033a3.7,3.7,0,0,0-.61-2.389,2.362,2.362,0,0,0-2.017-.869,2.6,2.6,0,0,0-1.2.259,2.451,2.451,0,0,0-.847.7,3.175,3.175,0,0,0-.516,1.033,5.156,5.156,0,0,0-.209,1.27Z" transform="translate(-109.338 -122.254)" fill="#402867"/>
    <path id="Path_3" data-name="Path 3" d="M418.9,369.114a.38.38,0,0,1-.144.316.969.969,0,0,1-.452.165,6.131,6.131,0,0,1-.911.049,6.234,6.234,0,0,1-.94-.049.8.8,0,0,1-.416-.165.411.411,0,0,1-.122-.316v-1.019a5.847,5.847,0,0,1-1.8,1.321,5.246,5.246,0,0,1-2.247.474,6.291,6.291,0,0,1-1.873-.266,4.2,4.2,0,0,1-1.479-.79,3.541,3.541,0,0,1-.968-1.3,4.426,4.426,0,0,1-.345-1.81,4.1,4.1,0,0,1,.438-1.944,3.555,3.555,0,0,1,1.307-1.364,6.512,6.512,0,0,1,2.16-.8,15.472,15.472,0,0,1,3-.258h1.249v-.776a4.1,4.1,0,0,0-.122-1.054,1.769,1.769,0,0,0-.4-.754,1.659,1.659,0,0,0-.746-.445,4.008,4.008,0,0,0-1.156-.143,5.973,5.973,0,0,0-1.615.2,9.317,9.317,0,0,0-1.256.445c-.363.163-.668.311-.912.445a1.326,1.326,0,0,1-.6.2.428.428,0,0,1-.28-.1.724.724,0,0,1-.2-.287,2,2,0,0,1-.122-.46,3.881,3.881,0,0,1-.042-.6,2.75,2.75,0,0,1,.071-.7,1.077,1.077,0,0,1,.273-.467,2.722,2.722,0,0,1,.7-.459,8.237,8.237,0,0,1,1.177-.466,10.969,10.969,0,0,1,1.472-.352,9.693,9.693,0,0,1,1.644-.137,9.833,9.833,0,0,1,2.576.295,4.342,4.342,0,0,1,1.758.9,3.529,3.529,0,0,1,1.005,1.572,7.355,7.355,0,0,1,.315,2.283Zm-3.545-5.482h-1.378a7.456,7.456,0,0,0-1.493.128,2.87,2.87,0,0,0-1,.388,1.589,1.589,0,0,0-.566.625,1.882,1.882,0,0,0-.18.839,1.615,1.615,0,0,0,.51,1.263,2.039,2.039,0,0,0,1.414.46,2.647,2.647,0,0,0,1.4-.388,5.8,5.8,0,0,0,1.3-1.135Z" transform="translate(-134.472 -122.254)" fill="#402867"/>
    <path id="Path_4" data-name="Path 4" d="M454.562,357.458q0,.517-.029.847a2.59,2.59,0,0,1-.086.518.494.494,0,0,1-.151.258.375.375,0,0,1-.237.072.8.8,0,0,1-.258-.05q-.144-.05-.323-.108c-.119-.039-.251-.074-.394-.107a2.066,2.066,0,0,0-.474-.051,1.593,1.593,0,0,0-.6.122,2.551,2.551,0,0,0-.624.38,4.613,4.613,0,0,0-.674.689,11.092,11.092,0,0,0-.754,1.062v7.98a.391.391,0,0,1-.086.252.641.641,0,0,1-.295.178,2.447,2.447,0,0,1-.552.108,10.766,10.766,0,0,1-1.751,0,2.455,2.455,0,0,1-.553-.108.64.64,0,0,1-.294-.178.393.393,0,0,1-.086-.252v-12.8a.436.436,0,0,1,.072-.251.525.525,0,0,1,.259-.18,2.042,2.042,0,0,1,.48-.108,6.475,6.475,0,0,1,.74-.035,6.807,6.807,0,0,1,.761.035,1.716,1.716,0,0,1,.466.108.518.518,0,0,1,.237.18.436.436,0,0,1,.072.251v1.593a10.146,10.146,0,0,1,.948-1.184,5.3,5.3,0,0,1,.847-.739,2.632,2.632,0,0,1,.8-.38,3.035,3.035,0,0,1,.8-.109c.124,0,.258.008.4.022a4.007,4.007,0,0,1,.445.072,2.846,2.846,0,0,1,.4.116.778.778,0,0,1,.252.136.455.455,0,0,1,.115.157,1.3,1.3,0,0,1,.064.237,3.444,3.444,0,0,1,.043.452q.014.3.014.818" transform="translate(-159.776 -122.254)" fill="#402867"/>
    <path id="Path_5" data-name="Path 5" d="M486.454,369.07a.391.391,0,0,1-.086.252.634.634,0,0,1-.287.178,2.356,2.356,0,0,1-.552.107,8.428,8.428,0,0,1-.869.036,8.619,8.619,0,0,1-.883-.036,2.338,2.338,0,0,1-.552-.107.635.635,0,0,1-.287-.178.388.388,0,0,1-.085-.252v-7.3a6.175,6.175,0,0,0-.137-1.464,2.87,2.87,0,0,0-.4-.911,1.751,1.751,0,0,0-.667-.589,2.075,2.075,0,0,0-.954-.208,2.394,2.394,0,0,0-1.392.5,7.57,7.57,0,0,0-1.464,1.464v8.511a.389.389,0,0,1-.086.252.634.634,0,0,1-.294.178,2.456,2.456,0,0,1-.552.107,10.657,10.657,0,0,1-1.751,0,2.457,2.457,0,0,1-.552-.107.638.638,0,0,1-.295-.178.391.391,0,0,1-.086-.252v-12.8a.438.438,0,0,1,.072-.251.526.526,0,0,1,.259-.18,2.063,2.063,0,0,1,.481-.108,6.44,6.44,0,0,1,.739-.035,6.815,6.815,0,0,1,.76.035,1.728,1.728,0,0,1,.466.108.525.525,0,0,1,.237.18.436.436,0,0,1,.072.251v1.478a8.153,8.153,0,0,1,2.16-1.723,4.884,4.884,0,0,1,2.29-.574,5.073,5.073,0,0,1,2.2.431,3.872,3.872,0,0,1,1.45,1.17,4.777,4.777,0,0,1,.8,1.729,10.084,10.084,0,0,1,.244,2.383Z" transform="translate(-177.808 -122.254)" fill="#402867"/>
    <path id="Path_6" data-name="Path 6" d="M517.925,342.088a2.022,2.022,0,0,1-.445,1.507,3.524,3.524,0,0,1-3.294.013,1.965,1.965,0,0,1-.422-1.449,2.074,2.074,0,0,1,.436-1.514,3.469,3.469,0,0,1,3.295-.015,1.971,1.971,0,0,1,.43,1.457m-.272,17.136a.391.391,0,0,1-.086.252.638.638,0,0,1-.294.178,2.452,2.452,0,0,1-.552.107,10.653,10.653,0,0,1-1.751,0,2.447,2.447,0,0,1-.553-.107.643.643,0,0,1-.295-.178.393.393,0,0,1-.086-.252V346.451a.392.392,0,0,1,.086-.251.686.686,0,0,1,.295-.187,2.551,2.551,0,0,1,.553-.122,9.136,9.136,0,0,1,1.751,0,2.557,2.557,0,0,1,.552.122.68.68,0,0,1,.294.187.39.39,0,0,1,.086.251Z" transform="translate(-203.374 -112.408)" fill="#402867"/>
    <path id="Path_7" data-name="Path 7" d="M542.649,369.07a.392.392,0,0,1-.085.252.635.635,0,0,1-.287.178,2.354,2.354,0,0,1-.553.107,8.413,8.413,0,0,1-.868.036,8.608,8.608,0,0,1-.883-.036,2.33,2.33,0,0,1-.552-.107.64.64,0,0,1-.288-.178.392.392,0,0,1-.085-.252v-7.3a6.138,6.138,0,0,0-.137-1.464,2.862,2.862,0,0,0-.395-.911,1.75,1.75,0,0,0-.668-.589,2.073,2.073,0,0,0-.953-.208,2.4,2.4,0,0,0-1.392.5,7.572,7.572,0,0,0-1.464,1.464v8.511a.391.391,0,0,1-.086.252.64.64,0,0,1-.294.178,2.452,2.452,0,0,1-.552.107,10.653,10.653,0,0,1-1.751,0,2.46,2.46,0,0,1-.553-.107.638.638,0,0,1-.294-.178.393.393,0,0,1-.086-.252v-12.8a.439.439,0,0,1,.071-.251.522.522,0,0,1,.258-.18,2.061,2.061,0,0,1,.481-.108,6.443,6.443,0,0,1,.739-.035,6.816,6.816,0,0,1,.761.035,1.709,1.709,0,0,1,.465.108.526.526,0,0,1,.237.18.439.439,0,0,1,.072.251v1.478a8.131,8.131,0,0,1,2.16-1.723,4.88,4.88,0,0,1,2.289-.574,5.072,5.072,0,0,1,2.2.431,3.866,3.866,0,0,1,1.449,1.17,4.766,4.766,0,0,1,.8,1.729,10.16,10.16,0,0,1,.243,2.383Z" transform="translate(-214.144 -122.254)" fill="#402867"/>
    <path id="Path_8" data-name="Path 8" d="M581.516,357.263a2.468,2.468,0,0,1-.158,1.019q-.158.33-.387.331h-1.507a2.033,2.033,0,0,1,.452.782,3.041,3.041,0,0,1,.137.911,4.993,4.993,0,0,1-.374,1.988,3.931,3.931,0,0,1-1.069,1.463,4.712,4.712,0,0,1-1.679.905,7.293,7.293,0,0,1-2.189.308,4.528,4.528,0,0,1-1.177-.15,2.984,2.984,0,0,1-.861-.352,2.023,2.023,0,0,0-.308.445,1.214,1.214,0,0,0-.137.575.809.809,0,0,0,.366.681,1.863,1.863,0,0,0,1.027.294l3.114.115a7.6,7.6,0,0,1,1.945.309,4.175,4.175,0,0,1,1.435.747,3.217,3.217,0,0,1,.89,1.155,3.645,3.645,0,0,1,.309,1.536,3.963,3.963,0,0,1-.417,1.787,4.054,4.054,0,0,1-1.249,1.457,6.47,6.47,0,0,1-2.088.975,10.738,10.738,0,0,1-2.935.359,13.019,13.019,0,0,1-2.792-.258,6.122,6.122,0,0,1-1.894-.718,2.9,2.9,0,0,1-1.076-1.1,2.934,2.934,0,0,1-.337-1.4,3.341,3.341,0,0,1,.121-.9,3.4,3.4,0,0,1,.359-.825,4.2,4.2,0,0,1,.582-.754,6.294,6.294,0,0,1,.789-.688,2.393,2.393,0,0,1-.954-.9,2.368,2.368,0,0,1-.338-1.241,3.117,3.117,0,0,1,.387-1.543,4.893,4.893,0,0,1,1.005-1.256,3.789,3.789,0,0,1-.8-1.206,4.447,4.447,0,0,1-.3-1.75,4.869,4.869,0,0,1,.394-2,4.238,4.238,0,0,1,1.1-1.493,4.863,4.863,0,0,1,1.68-.933,6.8,6.8,0,0,1,2.153-.323,9.2,9.2,0,0,1,1.155.071,7.944,7.944,0,0,1,1.026.2h4.063c.162,0,.294.106.394.316a2.66,2.66,0,0,1,.152,1.062m-3.789,13.248a1.116,1.116,0,0,0-.517-.99,2.694,2.694,0,0,0-1.421-.374l-2.569-.071a3.724,3.724,0,0,0-.6.524,3.115,3.115,0,0,0-.358.481,1.408,1.408,0,0,0-.18.444,2.282,2.282,0,0,0-.043.446,1.177,1.177,0,0,0,.725,1.091,4.545,4.545,0,0,0,2.046.373,4.912,4.912,0,0,0,1.378-.165,2.662,2.662,0,0,0,.9-.437,1.572,1.572,0,0,0,.488-.61,1.8,1.8,0,0,0,.143-.71m-.847-10.219a2,2,0,0,0-2.2-2.182,2.272,2.272,0,0,0-.933.18,1.873,1.873,0,0,0-.667.488,2.021,2.021,0,0,0-.4.718,2.835,2.835,0,0,0-.129.854,2.07,2.07,0,0,0,.574,1.543,2.169,2.169,0,0,0,1.593.567,2.4,2.4,0,0,0,.947-.172,1.858,1.858,0,0,0,.668-.474,2.069,2.069,0,0,0,.4-.7,2.512,2.512,0,0,0,.136-.826" transform="translate(-238.802 -122.36)" fill="#402867"/>
    <path id="Path_9" data-name="Path 9" d="M358.6,299.454a.446.446,0,0,1-.079.258.553.553,0,0,1-.286.186,2.733,2.733,0,0,1-.554.115,7.216,7.216,0,0,1-.875.043,7.093,7.093,0,0,1-.862-.043,2.584,2.584,0,0,1-.545-.115.592.592,0,0,1-.286-.186.417.417,0,0,1-.086-.258V284.341H355l-5.383,15.1a.684.684,0,0,1-.186.308.9.9,0,0,1-.352.194,2.352,2.352,0,0,1-.567.094q-.343.022-.831.022t-.833-.036a2.527,2.527,0,0,1-.566-.116,1.058,1.058,0,0,1-.352-.194.562.562,0,0,1-.172-.272l-5.2-15.1h-.029v15.113a.451.451,0,0,1-.079.258.555.555,0,0,1-.295.186,2.862,2.862,0,0,1-.552.115,8.622,8.622,0,0,1-1.729,0,2.726,2.726,0,0,1-.553-.115.55.55,0,0,1-.287-.186.442.442,0,0,1-.08-.258V282.9a1.518,1.518,0,0,1,.388-1.12,1.4,1.4,0,0,1,1.033-.387h2.469a5.2,5.2,0,0,1,1.133.108,2.2,2.2,0,0,1,.818.359,2.034,2.034,0,0,1,.574.661,4.753,4.753,0,0,1,.4,1.011L347.8,294.6h.058l4.161-11.038a5.82,5.82,0,0,1,.41-1.019,2.375,2.375,0,0,1,.516-.675,1.7,1.7,0,0,1,.7-.366,3.638,3.638,0,0,1,.933-.108h2.541a1.993,1.993,0,0,1,.668.1,1.148,1.148,0,0,1,.46.294,1.3,1.3,0,0,1,.272.474,2.035,2.035,0,0,1,.093.638Z" transform="translate(-89.052 -74.373)" fill="#402867"/>
    <path id="Path_10" data-name="Path 10" d="M418.3,282.948a5.9,5.9,0,0,1-.036.711,1.986,1.986,0,0,1-.107.474.634.634,0,0,1-.179.266.376.376,0,0,1-.237.086h-4.65v14.97a.4.4,0,0,1-.093.259.656.656,0,0,1-.309.186,2.935,2.935,0,0,1-.581.115,9.572,9.572,0,0,1-1.822,0,2.93,2.93,0,0,1-.581-.115.649.649,0,0,1-.309-.186.4.4,0,0,1-.094-.259v-14.97h-4.65a.365.365,0,0,1-.244-.086.667.667,0,0,1-.171-.266,1.929,1.929,0,0,1-.108-.474,5.99,5.99,0,0,1-.035-.711,6.326,6.326,0,0,1,.035-.732,1.944,1.944,0,0,1,.108-.481.609.609,0,0,1,.171-.258.385.385,0,0,1,.244-.079h13.089a.4.4,0,0,1,.237.079.582.582,0,0,1,.179.258,2,2,0,0,1,.107.481,6.225,6.225,0,0,1,.036.732" transform="translate(-132.463 -74.373)" fill="#402867"/>
    <path id="Path_11" data-name="Path 11" d="M452.629,307.693a.385.385,0,0,1-.143.316.99.99,0,0,1-.452.164,6.092,6.092,0,0,1-.911.051,6.21,6.21,0,0,1-.941-.051.809.809,0,0,1-.415-.164.412.412,0,0,1-.122-.316v-1.018a5.843,5.843,0,0,1-1.8,1.32,5.239,5.239,0,0,1-2.246.474,6.273,6.273,0,0,1-1.874-.266,4.217,4.217,0,0,1-1.479-.789,3.567,3.567,0,0,1-.969-1.3,4.432,4.432,0,0,1-.345-1.809,4.09,4.09,0,0,1,.438-1.944A3.559,3.559,0,0,1,442.675,301a6.517,6.517,0,0,1,2.161-.8,15.475,15.475,0,0,1,3-.258h1.249v-.775a4.059,4.059,0,0,0-.123-1.055,1.754,1.754,0,0,0-.4-.754,1.649,1.649,0,0,0-.746-.445,3.964,3.964,0,0,0-1.156-.143,5.915,5.915,0,0,0-1.615.2,9.319,9.319,0,0,0-1.256.444q-.546.244-.911.445a1.331,1.331,0,0,1-.6.2.43.43,0,0,1-.281-.1.738.738,0,0,1-.2-.286,1.975,1.975,0,0,1-.122-.459,4.033,4.033,0,0,1-.043-.6,2.756,2.756,0,0,1,.071-.7,1.081,1.081,0,0,1,.273-.466,2.638,2.638,0,0,1,.7-.459,8.2,8.2,0,0,1,1.177-.467,10.807,10.807,0,0,1,1.47-.352,10.831,10.831,0,0,1,4.22.158,4.346,4.346,0,0,1,1.759.905,3.515,3.515,0,0,1,1,1.57,7.36,7.36,0,0,1,.316,2.283Zm-3.545-5.482h-1.378a7.384,7.384,0,0,0-1.492.129,2.861,2.861,0,0,0-1.005.387,1.6,1.6,0,0,0-.567.624,1.876,1.876,0,0,0-.18.839,1.614,1.614,0,0,0,.51,1.263,2.032,2.032,0,0,0,1.413.459,2.658,2.658,0,0,0,1.4-.387,5.815,5.815,0,0,0,1.3-1.134Z" transform="translate(-156.28 -82.54)" fill="#402867"/>
    <path id="Path_12" data-name="Path 12" d="M475.824,282.981a1.518,1.518,0,0,1-.938,1.414,1.548,1.548,0,0,1-.6.12,1.6,1.6,0,0,1-.614-.117,1.449,1.449,0,0,1-.482-.318,1.423,1.423,0,0,1-.316-.48,1.594,1.594,0,0,1-.113-.612,1.492,1.492,0,0,1,.119-.6,1.508,1.508,0,0,1,.815-.809,1.563,1.563,0,0,1,.607-.117,1.616,1.616,0,0,1,.614.113,1.413,1.413,0,0,1,.8.8,1.6,1.6,0,0,1,.114.608m-.353.023a1.391,1.391,0,0,0-.088-.506,1.163,1.163,0,0,0-.246-.39,1.046,1.046,0,0,0-.372-.249,1.251,1.251,0,0,0-.466-.087,1.206,1.206,0,0,0-.488.094,1.135,1.135,0,0,0-.375.259,1.169,1.169,0,0,0-.242.382,1.3,1.3,0,0,0-.084.465,1.378,1.378,0,0,0,.088.5,1.169,1.169,0,0,0,.246.39,1.066,1.066,0,0,0,.372.251,1.223,1.223,0,0,0,.466.088,1.21,1.21,0,0,0,.491-.1,1.163,1.163,0,0,0,.375-.259,1.135,1.135,0,0,0,.239-.38,1.285,1.285,0,0,0,.084-.465m-.463.718a.07.07,0,0,1-.006.028.039.039,0,0,1-.029.02.411.411,0,0,1-.068.011c-.028,0-.067,0-.117,0s-.081,0-.108,0a.235.235,0,0,1-.066-.014.091.091,0,0,1-.04-.028.114.114,0,0,1-.021-.048l-.083-.27a.459.459,0,0,0-.112-.2.286.286,0,0,0-.194-.057h-.106v.55a.06.06,0,0,1-.033.059.5.5,0,0,1-.155.015.566.566,0,0,1-.161-.015.06.06,0,0,1-.039-.059V282.3a.2.2,0,0,1,.044-.135.164.164,0,0,1,.129-.049h.451a1.314,1.314,0,0,1,.277.027.592.592,0,0,1,.2.086.38.38,0,0,1,.128.147.477.477,0,0,1,.044.21.4.4,0,0,1-.1.292.569.569,0,0,1-.275.147.506.506,0,0,1,.176.106.589.589,0,0,1,.141.224l.095.251a.6.6,0,0,1,.028.115m-.487-1.087a.3.3,0,0,0-.012-.082.148.148,0,0,0-.045-.068.209.209,0,0,0-.088-.046.516.516,0,0,0-.137-.016h-.18v.44h.173a.32.32,0,0,0,.227-.063.224.224,0,0,0,.063-.165" transform="translate(-176.859 -74.415)" fill="#402867"/>
    <path id="Path_13" data-name="Path 13" d="M257.858,178.114a.741.741,0,0,0-.37-.641l-19.047-11a.742.742,0,0,0-.741,0l-19.047,11-19.047,10.994a.741.741,0,0,0-.37.641V211.1a.741.741,0,0,0,.37.641l19.048,11a.741.741,0,0,0,1.111-.641l0-20.711L237.7,211.744a.741.741,0,0,0,1.111-.641v-20.71l17.937,10.355a.741.741,0,0,0,1.111-.641Zm-10.634,4.856-8.412,4.856V168.4l16.825,9.714Zm-27.46,15.853V179.395l3.3,1.906,13.524,7.808-13.524,7.808ZM237.33,168.4v19.427L220.5,178.112Zm-19.047,11v19.428l-16.825-9.716Zm-17.565,31.277V190.39l17.566,10.144,0,20.282Zm36.612-.853L220.5,200.106l16.826-9.714Zm2.222-20.71,8.412-4.856,8.412-4.856v19.427Z" fill="#402867"/>
  </g>
</svg>
